<?xml version="1.0" standalone="no"?>
<!DOCTYPE svg PUBLIC "-//W3C//DTD SVG 20010904//EN"
 "http://www.w3.org/TR/2001/REC-SVG-20010904/DTD/svg10.dtd">
<svg version="1.0" xmlns="http://www.w3.org/2000/svg"
 width="700.000000pt" height="700.000000pt" viewBox="0 0 700.000000 700.000000"
 preserveAspectRatio="xMidYMid meet">
<metadata>
Created by potrace 1.11, written by Peter Selinger 2001-2013
</metadata>
<g transform="translate(0.000000,700.000000) scale(0.100000,-0.100000)"
fill="#000000" stroke="none">
<path d="M4757 6124 c-1 -1 -40 -5 -86 -8 -327 -27 -669 -215 -883 -484 -145
-182 -248 -422 -276 -639 -13 -105 -7 -342 12 -430 100 -477 433 -853 883
-998 139 -44 221 -57 378 -60 225 -4 403 34 590 124 145 71 246 143 361 256
304 302 441 726 369 1147 -87 514 -469 927 -974 1053 -53 13 -127 27 -166 31
-69 7 -203 12 -208 8z"/>
<path d="M1805 5675 c-186 -33 -304 -80 -453 -179 -228 -152 -414 -434 -457
-696 -42 -252 -11 -478 97 -695 145 -292 421 -507 744 -580 84 -19 306 -26
399 -13 277 41 553 211 720 443 98 136 173 315 191 455 3 25 7 56 10 70 6 35
5 184 -2 245 -46 407 -339 770 -729 903 -154 52 -375 72 -520 47z"/>
<path d="M2117 3064 c-1 -1 -59 -5 -129 -8 -70 -4 -137 -9 -150 -11 -41 -6
-172 -26 -200 -30 -14 -2 -82 -18 -151 -35 -584 -143 -1047 -502 -1302 -1010
-124 -247 -186 -479 -180 -675 5 -176 67 -283 206 -359 111 -61 84 -60 1122
-60 841 -1 947 1 941 14 -70 170 -88 278 -81 485 9 252 48 431 144 665 36 88
105 227 134 270 9 14 40 61 69 105 120 181 322 397 478 511 21 15 14 18 -128
53 -229 56 -429 81 -685 85 -48 0 -87 0 -88 0z"/>
<path d="M4757 3064 c-1 -1 -58 -5 -127 -8 -168 -10 -284 -24 -419 -51 -163
-32 -397 -112 -546 -187 -501 -251 -867 -702 -999 -1229 -74 -295 -46 -478 91
-599 53 -46 98 -69 188 -96 57 -17 159 -18 1870 -18 1708 0 1813 1 1870 18
289 87 374 313 269 719 -42 165 -149 402 -247 547 -304 452 -759 743 -1322
849 -174 32 -200 35 -385 47 -99 6 -240 10 -243 8z"/>
</g>
</svg>
